<?xml version="1.0" standalone="no"?>
<!DOCTYPE svg PUBLIC "-//W3C//DTD SVG 20010904//EN"
 "http://www.w3.org/TR/2001/REC-SVG-20010904/DTD/svg10.dtd">
<svg version="1.0" xmlns="http://www.w3.org/2000/svg"
 width="64.000000pt" height="64.000000pt" viewBox="0 0 64.000000 64.000000"
 preserveAspectRatio="xMidYMid meet">

<g transform="translate(0.000000,64.000000) scale(0.100000,-0.100000)"
fill="#000000" stroke="none">
<path d="M147 583 c-4 -3 -7 -25 -7 -47 -1 -23 -7 -52 -15 -66 -19 -34 -19
-114 2 -157 18 -39 61 -70 110 -79 32 -6 32 -6 17 -35 -22 -43 -66 -40 -107 6
-17 20 -40 35 -53 35 -21 0 -21 0 5 -31 68 -80 79 -89 115 -89 34 0 36 -2 36
-35 l0 -35 91 0 91 0 -4 73 c-3 39 -8 79 -12 88 -6 13 3 19 38 29 98 27 143
133 96 225 -11 22 -18 47 -15 56 3 10 3 29 -1 43 -7 29 -31 34 -67 14 -32 -17
-225 -18 -259 -1 -30 14 -51 17 -61 6z"/>
</g>
</svg>
