<?xml version="1.0" standalone="no"?>
<!DOCTYPE svg PUBLIC "-//W3C//DTD SVG 20010904//EN"
 "http://www.w3.org/TR/2001/REC-SVG-20010904/DTD/svg10.dtd">
<svg version="1.0" xmlns="http://www.w3.org/2000/svg"
 width="64.000000pt" height="64.000000pt" viewBox="0 0 64.000000 64.000000"
 preserveAspectRatio="xMidYMid meet">

<g transform="translate(0.000000,64.000000) scale(0.100000,-0.100000)"
fill="#000000" stroke="none">
<path d="M203 574 c-54 -37 -119 -82 -145 -101 l-48 -35 0 -117 c0 -139 -13
-121 169 -241 99 -64 130 -80 149 -75 14 3 86 47 161 98 l136 92 3 122 3 123
-151 100 c-83 55 -158 100 -165 100 -8 0 -58 -30 -112 -66z m77 -86 c-1 -62
-1 -63 -41 -90 -21 -16 -44 -28 -49 -28 -10 0 -90 50 -90 56 0 3 172 124 177
124 2 0 3 -28 3 -62z m165 2 c47 -34 85 -63 85 -65 0 -2 -20 -18 -45 -35 l-44
-30 -46 32 -45 32 0 63 c0 35 2 63 5 63 3 0 43 -27 90 -60z m-327 -158 c11 -7
7 -14 -17 -31 l-31 -22 0 41 c0 43 1 43 48 12z m227 12 c31 -20 31 -28 0 -48
-25 -16 -28 -16 -61 4 l-34 22 22 19 c28 23 42 23 73 3z m213 -44 c-3 -19 -3
-19 -28 0 l-25 20 25 20 c25 19 25 19 28 0 2 -11 2 -29 0 -40z m-322 -47 l44
-28 0 -62 c0 -35 -2 -63 -5 -63 -6 0 -153 97 -168 110 -7 6 66 68 82 70 2 0
23 -12 47 -27z m250 -3 c24 -17 44 -33 44 -35 0 -3 -40 -32 -90 -65 l-90 -61
0 65 0 65 43 30 c23 17 43 30 45 31 2 0 23 -14 48 -30z"/>
</g>
</svg>
